# xmcd
#
# Track frame offsets: 
#        150
#        13547
#        26267
#        37572
#        51467
#        59625
#        72085
#        82275
#        96530
#        109150
#        124810
#
# Disc length: 1831 seconds
#
# Revision: 3
# Processed by: cddbd v1.5.2PL0 Copyright (c) Steve Scherf et al.
# Submitted via: ExactAudioCopy v1.0b3
#
DISCID=9407250b
DTITLE=Cooder, Ry - Ry Cooder
DYEAR=1900
DGENRE=Latin
TTITLE0=Alimony
TTITLE1=France Chance
TTITLE2=One Meat Ball
TTITLE3=Do Re Mi
TTITLE4=My Old Kentucky Home (Turpentine and Dandelion Wine)
TTITLE5=How Can A Poor Man Stand Such Times And Live?
TTITLE6=Available Space
TTITLE7=Pigmeat
TTITLE8=Police Dog Blues
TTITLE9=Goin' To Brownsville
TTITLE10=Dark Is The Night
EXTD=1970 Warner Brothers Records
EXTT0=
EXTT1=
EXTT2=
EXTT3=
EXTT4=
EXTT5=
EXTT6=
EXTT7=
EXTT8=
EXTT9=
EXTT10=
PLAYORDER=
